<?xml version="1.0" encoding="UTF-8" standalone="no"?>
<!DOCTYPE svg PUBLIC "-//W3C//DTD SVG 1.1//EN"
 "http://www.w3.org/Graphics/SVG/1.1/DTD/svg11.dtd">
<!-- Generated by graphviz version 2.40.1 (20161225.0304)
 -->
<!-- Title: dependencies Pages: 1 -->
<svg width="708pt" height="211pt"
 viewBox="0.00 0.00 708.00 211.00" xmlns="http://www.w3.org/2000/svg" xmlns:xlink="http://www.w3.org/1999/xlink">
<g id="graph0" class="graph" transform="scale(1 1) rotate(0) translate(4 207)">
<title>dependencies</title>
<polygon fill="#ffffff" stroke="transparent" points="-4,4 -4,-207 704,-207 704,4 -4,4"/>
<text text-anchor="start" x="329.0091" y="-42.4" font-family="sans-serif" font-weight="bold" font-size="14.00" fill="#000000">Legend</text>
<polygon fill="#ffffb3" stroke="transparent" points="116,-10 116,-30 136,-30 136,-10 116,-10"/>
<text text-anchor="start" x="139.629" y="-15.4" font-family="sans-serif" font-size="14.00" fill="#000000"> &#160;Declarations</text>
<polygon fill="#8dd3c7" stroke="transparent" points="229,-10 229,-30 249,-30 249,-10 229,-10"/>
<text text-anchor="start" x="252.7251" y="-15.4" font-family="sans-serif" font-size="14.00" fill="#000000"> &#160;Module</text>
<polygon fill="#80b1d3" stroke="transparent" points="315,-10 315,-30 335,-30 335,-10 315,-10"/>
<text text-anchor="start" x="338.7812" y="-15.4" font-family="sans-serif" font-size="14.00" fill="#000000"> &#160;Bootstrap</text>
<polygon fill="#fdb462" stroke="transparent" points="412,-10 412,-30 432,-30 432,-10 412,-10"/>
<text text-anchor="start" x="435.6732" y="-15.4" font-family="sans-serif" font-size="14.00" fill="#000000"> &#160;Providers</text>
<polygon fill="#fb8072" stroke="transparent" points="508,-10 508,-30 528,-30 528,-10 508,-10"/>
<text text-anchor="start" x="531.7258" y="-15.4" font-family="sans-serif" font-size="14.00" fill="#000000"> &#160;Exports</text>
<g id="clust1" class="cluster">
<title>cluster_CountriesModule</title>
<polygon fill="none" stroke="#000000" stroke-dasharray="1,5" points="8,-70 8,-195 692,-195 692,-70 8,-70"/>
</g>
<g id="clust2" class="cluster">
<title>cluster_CountriesModule_declarations</title>
<polygon fill="none" stroke="#000000" points="138,-78 138,-130 684,-130 684,-78 138,-78"/>
</g>
<g id="clust6" class="cluster">
<title>cluster_CountriesModule_imports</title>
<polygon fill="none" stroke="#000000" points="16,-78 16,-130 130,-130 130,-78 16,-78"/>
</g>
<!-- CountriesDetailComponent -->
<g id="node1" class="node">
<title>CountriesDetailComponent</title>
<polygon fill="#ffffb3" stroke="#000000" points="675.9776,-122 506.0224,-122 506.0224,-86 675.9776,-86 675.9776,-122"/>
<text text-anchor="middle" x="591" y="-99.8" font-family="Times,serif" font-size="14.00" fill="#000000">CountriesDetailComponent</text>
</g>
<!-- CountriesModule -->
<g id="node4" class="node">
<title>CountriesModule</title>
<polygon fill="#8dd3c7" stroke="#000000" points="371.9874,-187 368.9874,-191 347.9874,-191 344.9874,-187 258.0126,-187 258.0126,-151 371.9874,-151 371.9874,-187"/>
<text text-anchor="middle" x="315" y="-164.8" font-family="Times,serif" font-size="14.00" fill="#000000">CountriesModule</text>
</g>
<!-- CountriesDetailComponent&#45;&gt;CountriesModule -->
<g id="edge1" class="edge">
<title>CountriesDetailComponent&#45;&gt;CountriesModule</title>
<path fill="none" stroke="#000000" d="M591,-122.1061C591,-141.3391 591,-169 591,-169 591,-169 382.1874,-169 382.1874,-169"/>
<polygon fill="#000000" stroke="#000000" points="382.1874,-165.5001 372.1874,-169 382.1873,-172.5001 382.1874,-165.5001"/>
</g>
<!-- CountriesFilterComponent -->
<g id="node2" class="node">
<title>CountriesFilterComponent</title>
<polygon fill="#ffffb3" stroke="#000000" points="488.0996,-122 321.9004,-122 321.9004,-86 488.0996,-86 488.0996,-122"/>
<text text-anchor="middle" x="405" y="-99.8" font-family="Times,serif" font-size="14.00" fill="#000000">CountriesFilterComponent</text>
</g>
<!-- CountriesFilterComponent&#45;&gt;CountriesModule -->
<g id="edge2" class="edge">
<title>CountriesFilterComponent&#45;&gt;CountriesModule</title>
<path fill="none" stroke="#000000" d="M346.972,-122.1061C346.972,-122.1061 346.972,-140.991 346.972,-140.991"/>
<polygon fill="#000000" stroke="#000000" points="343.472,-140.9909 346.972,-150.991 350.472,-140.991 343.472,-140.9909"/>
</g>
<!-- CountriesListComponent -->
<g id="node3" class="node">
<title>CountriesListComponent</title>
<polygon fill="#ffffb3" stroke="#000000" points="303.549,-122 146.451,-122 146.451,-86 303.549,-86 303.549,-122"/>
<text text-anchor="middle" x="225" y="-99.8" font-family="Times,serif" font-size="14.00" fill="#000000">CountriesListComponent</text>
</g>
<!-- CountriesListComponent&#45;&gt;CountriesModule -->
<g id="edge3" class="edge">
<title>CountriesListComponent&#45;&gt;CountriesModule</title>
<path fill="none" stroke="#000000" d="M280.8903,-122.1061C280.8903,-122.1061 280.8903,-140.991 280.8903,-140.991"/>
<polygon fill="#000000" stroke="#000000" points="277.3903,-140.9909 280.8903,-150.991 284.3903,-140.991 277.3903,-140.9909"/>
</g>
<!-- SharedModule -->
<g id="node5" class="node">
<title>SharedModule</title>
<polygon fill="#8dd3c7" stroke="#000000" points="122.4231,-122 119.4231,-126 98.4231,-126 95.4231,-122 23.5769,-122 23.5769,-86 122.4231,-86 122.4231,-122"/>
<text text-anchor="middle" x="73" y="-99.8" font-family="Times,serif" font-size="14.00" fill="#000000">SharedModule</text>
</g>
<!-- SharedModule&#45;&gt;CountriesModule -->
<g id="edge4" class="edge">
<title>SharedModule&#45;&gt;CountriesModule</title>
<path fill="none" stroke="#000000" d="M73,-122.1061C73,-141.3391 73,-169 73,-169 73,-169 247.9558,-169 247.9558,-169"/>
<polygon fill="#000000" stroke="#000000" points="247.9559,-172.5001 257.9558,-169 247.9558,-165.5001 247.9559,-172.5001"/>
</g>
</g>
</svg>
