<?xml version="1.0" encoding="UTF-8" standalone="no"?>
<!DOCTYPE svg PUBLIC "-//W3C//DTD SVG 1.1//EN"
 "http://www.w3.org/Graphics/SVG/1.1/DTD/svg11.dtd">
<!-- Generated by graphviz version 2.40.1 (20161225.0304)
 -->
<!-- Title: dependencies Pages: 1 -->
<svg width="504pt" height="284pt"
 viewBox="0.00 0.00 504.00 284.00" xmlns="http://www.w3.org/2000/svg" xmlns:xlink="http://www.w3.org/1999/xlink">
<g id="graph0" class="graph" transform="scale(1 1) rotate(0) translate(4 280)">
<title>dependencies</title>
<polygon fill="#ffffff" stroke="transparent" points="-4,4 -4,-280 500,-280 500,4 -4,4"/>
<text text-anchor="start" x="227.0091" y="-42.4" font-family="sans-serif" font-weight="bold" font-size="14.00" fill="#000000">Legend</text>
<polygon fill="#ffffb3" stroke="transparent" points="14,-10 14,-30 34,-30 34,-10 14,-10"/>
<text text-anchor="start" x="37.629" y="-15.4" font-family="sans-serif" font-size="14.00" fill="#000000"> &#160;Declarations</text>
<polygon fill="#8dd3c7" stroke="transparent" points="127,-10 127,-30 147,-30 147,-10 127,-10"/>
<text text-anchor="start" x="150.7251" y="-15.4" font-family="sans-serif" font-size="14.00" fill="#000000"> &#160;Module</text>
<polygon fill="#80b1d3" stroke="transparent" points="213,-10 213,-30 233,-30 233,-10 213,-10"/>
<text text-anchor="start" x="236.7812" y="-15.4" font-family="sans-serif" font-size="14.00" fill="#000000"> &#160;Bootstrap</text>
<polygon fill="#fdb462" stroke="transparent" points="310,-10 310,-30 330,-30 330,-10 310,-10"/>
<text text-anchor="start" x="333.6732" y="-15.4" font-family="sans-serif" font-size="14.00" fill="#000000"> &#160;Providers</text>
<polygon fill="#fb8072" stroke="transparent" points="406,-10 406,-30 426,-30 426,-10 406,-10"/>
<text text-anchor="start" x="429.7258" y="-15.4" font-family="sans-serif" font-size="14.00" fill="#000000"> &#160;Exports</text>
<g id="clust1" class="cluster">
<title>cluster_SharedModule</title>
<polygon fill="none" stroke="#000000" stroke-dasharray="1,5" points="11,-70 11,-268 485,-268 485,-70 11,-70"/>
</g>
<g id="clust2" class="cluster">
<title>cluster_SharedModule_declarations</title>
<polygon fill="none" stroke="#000000" points="19,-78 19,-130 477,-130 477,-78 19,-78"/>
</g>
<g id="clust7" class="cluster">
<title>cluster_SharedModule_exports</title>
<polygon fill="none" stroke="#000000" points="90,-208 90,-260 406,-260 406,-208 90,-208"/>
</g>
<!-- Error404Component -->
<g id="node1" class="node">
<title>Error404Component</title>
<polygon fill="#ffffb3" stroke="#000000" points="468.8669,-122 337.1331,-122 337.1331,-86 468.8669,-86 468.8669,-122"/>
<text text-anchor="middle" x="403" y="-99.8" font-family="Times,serif" font-size="14.00" fill="#000000">Error404Component</text>
</g>
<!-- SharedModule -->
<g id="node4" class="node">
<title>SharedModule</title>
<polygon fill="#8dd3c7" stroke="#000000" points="313.4231,-187 310.4231,-191 289.4231,-191 286.4231,-187 214.5769,-187 214.5769,-151 313.4231,-151 313.4231,-187"/>
<text text-anchor="middle" x="264" y="-164.8" font-family="Times,serif" font-size="14.00" fill="#000000">SharedModule</text>
</g>
<!-- Error404Component&#45;&gt;SharedModule -->
<g id="edge1" class="edge">
<title>Error404Component&#45;&gt;SharedModule</title>
<path fill="none" stroke="#000000" d="M367.625,-122.1061C367.625,-141.3391 367.625,-169 367.625,-169 367.625,-169 323.3846,-169 323.3846,-169"/>
<polygon fill="#000000" stroke="#000000" points="323.3846,-165.5001 313.3846,-169 323.3845,-172.5001 323.3846,-165.5001"/>
</g>
<!-- ErrorComponent -->
<g id="node2" class="node">
<title>ErrorComponent</title>
<polygon fill="#ffffb3" stroke="#000000" points="319.3669,-122 208.6331,-122 208.6331,-86 319.3669,-86 319.3669,-122"/>
<text text-anchor="middle" x="264" y="-99.8" font-family="Times,serif" font-size="14.00" fill="#000000">ErrorComponent</text>
</g>
<!-- ErrorComponent&#45;&gt;SharedModule -->
<g id="edge2" class="edge">
<title>ErrorComponent&#45;&gt;SharedModule</title>
<path fill="none" stroke="#000000" d="M264,-122.1061C264,-122.1061 264,-140.991 264,-140.991"/>
<polygon fill="#000000" stroke="#000000" points="260.5001,-140.9909 264,-150.991 267.5001,-140.991 260.5001,-140.9909"/>
</g>
<!-- SectionHeaderComponent -->
<g id="node3" class="node">
<title>SectionHeaderComponent</title>
<polygon fill="#ffffb3" stroke="#000000" points="190.7366,-122 27.2634,-122 27.2634,-86 190.7366,-86 190.7366,-122"/>
<text text-anchor="middle" x="109" y="-99.8" font-family="Times,serif" font-size="14.00" fill="#000000">SectionHeaderComponent</text>
</g>
<!-- SectionHeaderComponent&#45;&gt;SharedModule -->
<g id="edge3" class="edge">
<title>SectionHeaderComponent&#45;&gt;SharedModule</title>
<path fill="none" stroke="#000000" d="M144.625,-122.1061C144.625,-141.3391 144.625,-169 144.625,-169 144.625,-169 204.7564,-169 204.7564,-169"/>
<polygon fill="#000000" stroke="#000000" points="204.7565,-172.5001 214.7564,-169 204.7564,-165.5001 204.7565,-172.5001"/>
</g>
<!-- ErrorComponent  -->
<g id="node5" class="node">
<title>ErrorComponent </title>
<polygon fill="#fb8072" stroke="#000000" points="398.3674,-252 283.6326,-252 283.6326,-216 398.3674,-216 398.3674,-252"/>
<text text-anchor="middle" x="341" y="-229.8" font-family="Times,serif" font-size="14.00" fill="#000000">ErrorComponent </text>
</g>
<!-- SharedModule&#45;&gt;ErrorComponent  -->
<g id="edge4" class="edge">
<title>SharedModule&#45;&gt;ErrorComponent </title>
<path fill="none" stroke="#000000" stroke-dasharray="5,2" d="M298.5139,-187.1061C298.5139,-187.1061 298.5139,-205.991 298.5139,-205.991"/>
<polygon fill="#000000" stroke="#000000" points="295.0139,-205.9909 298.5139,-215.991 302.0139,-205.991 295.0139,-205.9909"/>
</g>
<!-- SectionHeaderComponent  -->
<g id="node6" class="node">
<title>SectionHeaderComponent </title>
<polygon fill="#fb8072" stroke="#000000" points="265.7366,-252 98.2634,-252 98.2634,-216 265.7366,-216 265.7366,-252"/>
<text text-anchor="middle" x="182" y="-229.8" font-family="Times,serif" font-size="14.00" fill="#000000">SectionHeaderComponent </text>
</g>
<!-- SharedModule&#45;&gt;SectionHeaderComponent  -->
<g id="edge5" class="edge">
<title>SharedModule&#45;&gt;SectionHeaderComponent </title>
<path fill="none" stroke="#000000" stroke-dasharray="5,2" d="M240.2036,-187.1061C240.2036,-187.1061 240.2036,-205.991 240.2036,-205.991"/>
<polygon fill="#000000" stroke="#000000" points="236.7036,-205.9909 240.2036,-215.991 243.7036,-205.991 236.7036,-205.9909"/>
</g>
</g>
</svg>
